# Blender v2.82 (sub 7) OBJ File: 'teseusu.blend'
# www.blender.org
mtllib teseusu.mtl
o Plane
v -1.000000 0.361441 -1.110149
v 1.000000 0.361441 -1.110149
v -1.000000 2.361441 -1.110149
v 1.000000 2.361441 -1.110149
v -1.000000 0.367924 1.116529
v 1.000000 0.367924 1.116529
v -1.000000 2.367924 1.116529
v 1.000000 2.367924 1.116529
vt 0.000000 0.000000
vt 1.000000 0.000000
vt 1.000000 1.000000
vt 0.000000 1.000000
vt 0.000000 0.000000
vt 1.000000 0.000000
vt 1.000000 1.000000
vt 0.000000 1.000000
vn 0.0000 -0.0000 1.0000
usemtl Material.001
s off
f 1/1/1 2/2/1 4/3/1 3/4/1
usemtl Material.002
f 5/5/1 6/6/1 8/7/1 7/8/1
